<svg xmlns="http://www.w3.org/2000/svg" width="71.286" height="70.657" viewBox="0 0 71.286 70.657">
  <path id="Icon_weather-stars" data-name="Icon weather-stars" d="M6.444,49.306a8.721,8.721,0,0,0,6.107-2.776,8.7,8.7,0,0,0,2.517-6.218,8.981,8.981,0,0,0,8.587,8.994A8.981,8.981,0,0,0,15.068,58.3a8.548,8.548,0,0,0-2.517-6.218A8.721,8.721,0,0,0,6.444,49.306Zm8.624-26.649a17.01,17.01,0,0,0,11.881-5.441,16.943,16.943,0,0,0,4.886-12.14,16.943,16.943,0,0,0,4.886,12.14,17.178,17.178,0,0,0,11.918,5.441,17.155,17.155,0,0,0-8.476,2.628,17.786,17.786,0,0,0-6.107,6.4,17.4,17.4,0,0,0-2.221,8.624,17.028,17.028,0,0,0-4.886-12.177A16.9,16.9,0,0,0,15.068,22.657ZM27.356,62.52A13.221,13.221,0,0,0,39.977,49.306,13.224,13.224,0,0,0,52.562,62.52,13.224,13.224,0,0,0,39.977,75.733a12.746,12.746,0,0,0-3.664-9.142A12.966,12.966,0,0,0,27.356,62.52ZM52.562,44.976a12.659,12.659,0,0,0,8.92-4.071,12.738,12.738,0,0,0,3.627-9.179A13.221,13.221,0,0,0,77.73,44.939,13.221,13.221,0,0,0,65.109,58.152,13.091,13.091,0,0,0,52.562,44.976Z" transform="translate(-6.444 -5.076)" fill="white"/>
</svg>
