<svg xmlns="http://www.w3.org/2000/svg" width="62" height="62" viewBox="0 0 62 62">
  <path id="Icon_awesome-thumbs-up" data-name="Icon awesome-thumbs-up" d="M12.594,27.125H2.906A2.906,2.906,0,0,0,0,30.031V59.094A2.906,2.906,0,0,0,2.906,62h9.688A2.906,2.906,0,0,0,15.5,59.094V30.031A2.906,2.906,0,0,0,12.594,27.125ZM7.75,57.156a2.906,2.906,0,1,1,2.906-2.906A2.906,2.906,0,0,1,7.75,57.156ZM46.5,9.863c0,5.136-3.145,8.017-4.03,11.449H54.788A7.235,7.235,0,0,1,62,28.348a8.768,8.768,0,0,1-2.354,5.957l-.013.013a10.115,10.115,0,0,1-1.127,9.623,9.576,9.576,0,0,1-1.984,9.053,6.429,6.429,0,0,1-.744,5.4C53.306,61.95,47.18,62,42,62h-.345c-5.847,0-10.633-2.131-14.478-3.842-1.932-.86-4.459-1.924-6.376-1.959a1.454,1.454,0,0,1-1.427-1.453V28.86a1.452,1.452,0,0,1,.431-1.032c4.8-4.74,6.86-9.759,10.792-13.7,1.793-1.8,2.445-4.509,3.075-7.133.539-2.24,1.665-7,4.109-7C40.688,0,46.5.969,46.5,9.863Z"/>
</svg>
