<svg xmlns="http://www.w3.org/2000/svg" width="67.818" height="52.504" viewBox="0 0 67.818 52.504">
  <path id="Icon_material-people" data-name="Icon material-people" d="M47.74,30c5.117,0,9.217-5.025,9.217-11.251S52.857,7.5,47.74,7.5s-9.248,5.025-9.248,11.251S42.623,30,47.74,30ZM23.079,30C28.2,30,32.3,24.976,32.3,18.751S28.2,7.5,23.079,7.5s-9.248,5.025-9.248,11.251S17.961,30,23.079,30Zm0,7.5C15.9,37.5,1.5,41.89,1.5,50.629V60H44.657V50.629C44.657,41.89,30.261,37.5,23.079,37.5Zm24.661,0a29.659,29.659,0,0,0-2.99.188,16.778,16.778,0,0,1,6.073,12.939V60h18.5V50.629C69.318,41.89,54.922,37.5,47.74,37.5Z" transform="translate(-1.5 -7.5)"/>
</svg>
